<mxfile host="app.diagrams.net" modified="2021-06-25T00:46:30.488Z" agent="5.0 (Windows NT 10.0; Win64; x64) AppleWebKit/537.36 (KHTML, like Gecko) Chrome/91.0.4472.114 Safari/537.36" etag="n6Ihl7q373XpwAA12ZO9" version="14.7.10" type="github">
  <diagram id="28HQwo6OCVCI5V9FNQji" name="Page-1">
    <mxGraphModel dx="1038" dy="617" grid="1" gridSize="10" guides="1" tooltips="1" connect="1" arrows="1" fold="1" page="1" pageScale="1" pageWidth="827" pageHeight="1169" math="0" shadow="0">
      <root>
        <mxCell id="0" />
        <mxCell id="1" parent="0" />
        <mxCell id="8I93Kz_Mq9PfsjWz6-mo-1" value="" style="rounded=0;whiteSpace=wrap;html=1;fillColor=#d5e8d4;strokeColor=#82b366;" vertex="1" parent="1">
          <mxGeometry x="10" y="20" width="780" height="200" as="geometry" />
        </mxCell>
        <mxCell id="8I93Kz_Mq9PfsjWz6-mo-2" value="依頼管理システム" style="text;html=1;strokeColor=none;fillColor=none;align=center;verticalAlign=middle;whiteSpace=wrap;rounded=0;strokeWidth=2;" vertex="1" parent="1">
          <mxGeometry x="20" y="20" width="110" height="20" as="geometry" />
        </mxCell>
        <mxCell id="8I93Kz_Mq9PfsjWz6-mo-7" style="edgeStyle=orthogonalEdgeStyle;rounded=0;orthogonalLoop=1;jettySize=auto;html=1;" edge="1" parent="1" source="8I93Kz_Mq9PfsjWz6-mo-3" target="8I93Kz_Mq9PfsjWz6-mo-4">
          <mxGeometry relative="1" as="geometry" />
        </mxCell>
        <mxCell id="8I93Kz_Mq9PfsjWz6-mo-3" value="Actor" style="shape=umlActor;verticalLabelPosition=bottom;verticalAlign=top;html=1;outlineConnect=0;" vertex="1" parent="1">
          <mxGeometry x="60" y="60" width="20" height="30" as="geometry" />
        </mxCell>
        <mxCell id="8I93Kz_Mq9PfsjWz6-mo-8" style="edgeStyle=orthogonalEdgeStyle;rounded=0;orthogonalLoop=1;jettySize=auto;html=1;" edge="1" parent="1" source="8I93Kz_Mq9PfsjWz6-mo-4" target="8I93Kz_Mq9PfsjWz6-mo-5">
          <mxGeometry relative="1" as="geometry" />
        </mxCell>
        <mxCell id="8I93Kz_Mq9PfsjWz6-mo-15" style="edgeStyle=orthogonalEdgeStyle;rounded=0;orthogonalLoop=1;jettySize=auto;html=1;entryX=0;entryY=0.5;entryDx=0;entryDy=0;" edge="1" parent="1" source="8I93Kz_Mq9PfsjWz6-mo-4" target="8I93Kz_Mq9PfsjWz6-mo-13">
          <mxGeometry relative="1" as="geometry" />
        </mxCell>
        <mxCell id="8I93Kz_Mq9PfsjWz6-mo-4" value="元ファイルアップ" style="rounded=1;whiteSpace=wrap;html=1;" vertex="1" parent="1">
          <mxGeometry x="150" y="52.5" width="100" height="45" as="geometry" />
        </mxCell>
        <mxCell id="8I93Kz_Mq9PfsjWz6-mo-9" style="edgeStyle=orthogonalEdgeStyle;rounded=0;orthogonalLoop=1;jettySize=auto;html=1;" edge="1" parent="1" source="8I93Kz_Mq9PfsjWz6-mo-5" target="8I93Kz_Mq9PfsjWz6-mo-6">
          <mxGeometry relative="1" as="geometry" />
        </mxCell>
        <mxCell id="8I93Kz_Mq9PfsjWz6-mo-5" value="実行日付を選ぶ" style="rounded=1;whiteSpace=wrap;html=1;" vertex="1" parent="1">
          <mxGeometry x="300" y="52.5" width="100" height="45" as="geometry" />
        </mxCell>
        <mxCell id="8I93Kz_Mq9PfsjWz6-mo-12" style="edgeStyle=orthogonalEdgeStyle;rounded=0;orthogonalLoop=1;jettySize=auto;html=1;entryX=0;entryY=0.5;entryDx=0;entryDy=0;" edge="1" parent="1" source="8I93Kz_Mq9PfsjWz6-mo-6" target="8I93Kz_Mq9PfsjWz6-mo-11">
          <mxGeometry relative="1" as="geometry" />
        </mxCell>
        <mxCell id="8I93Kz_Mq9PfsjWz6-mo-6" value="①保存" style="rounded=1;whiteSpace=wrap;html=1;" vertex="1" parent="1">
          <mxGeometry x="450" y="52.5" width="100" height="45" as="geometry" />
        </mxCell>
        <mxCell id="8I93Kz_Mq9PfsjWz6-mo-11" value="" style="ellipse;whiteSpace=wrap;html=1;aspect=fixed;fillColor=#000000;" vertex="1" parent="1">
          <mxGeometry x="630" y="65" width="20" height="20" as="geometry" />
        </mxCell>
        <mxCell id="8I93Kz_Mq9PfsjWz6-mo-16" style="edgeStyle=orthogonalEdgeStyle;rounded=0;orthogonalLoop=1;jettySize=auto;html=1;entryX=0;entryY=0.5;entryDx=0;entryDy=0;" edge="1" parent="1" source="8I93Kz_Mq9PfsjWz6-mo-13" target="8I93Kz_Mq9PfsjWz6-mo-14">
          <mxGeometry relative="1" as="geometry" />
        </mxCell>
        <mxCell id="8I93Kz_Mq9PfsjWz6-mo-13" value="②実行" style="rounded=1;whiteSpace=wrap;html=1;" vertex="1" parent="1">
          <mxGeometry x="300" y="140" width="100" height="45" as="geometry" />
        </mxCell>
        <mxCell id="8I93Kz_Mq9PfsjWz6-mo-14" value="" style="ellipse;whiteSpace=wrap;html=1;aspect=fixed;fillColor=#000000;" vertex="1" parent="1">
          <mxGeometry x="470" y="152.5" width="20" height="20" as="geometry" />
        </mxCell>
        <mxCell id="8I93Kz_Mq9PfsjWz6-mo-22" style="edgeStyle=orthogonalEdgeStyle;rounded=0;orthogonalLoop=1;jettySize=auto;html=1;entryX=0;entryY=0.5;entryDx=0;entryDy=0;" edge="1" parent="1" target="8I93Kz_Mq9PfsjWz6-mo-21">
          <mxGeometry relative="1" as="geometry">
            <mxPoint x="60" y="312.5" as="sourcePoint" />
          </mxGeometry>
        </mxCell>
        <mxCell id="8I93Kz_Mq9PfsjWz6-mo-27" style="edgeStyle=orthogonalEdgeStyle;rounded=0;orthogonalLoop=1;jettySize=auto;html=1;" edge="1" parent="1" target="8I93Kz_Mq9PfsjWz6-mo-23">
          <mxGeometry relative="1" as="geometry">
            <mxPoint x="240" y="312.5" as="sourcePoint" />
          </mxGeometry>
        </mxCell>
        <mxCell id="8I93Kz_Mq9PfsjWz6-mo-28" style="edgeStyle=orthogonalEdgeStyle;rounded=0;orthogonalLoop=1;jettySize=auto;html=1;" edge="1" parent="1" target="8I93Kz_Mq9PfsjWz6-mo-25">
          <mxGeometry relative="1" as="geometry">
            <mxPoint x="400" y="312.5" as="sourcePoint" />
          </mxGeometry>
        </mxCell>
        <mxCell id="8I93Kz_Mq9PfsjWz6-mo-29" style="edgeStyle=orthogonalEdgeStyle;rounded=0;orthogonalLoop=1;jettySize=auto;html=1;" edge="1" parent="1" target="8I93Kz_Mq9PfsjWz6-mo-26">
          <mxGeometry relative="1" as="geometry">
            <mxPoint x="580" y="312.5" as="sourcePoint" />
          </mxGeometry>
        </mxCell>
        <mxCell id="8I93Kz_Mq9PfsjWz6-mo-30" value="スケージュールを取得ロボット" style="swimlane;strokeColor=#6c8ebf;strokeWidth=2;fillColor=#dae8fc;" vertex="1" parent="1">
          <mxGeometry x="10" y="260" width="780" height="160" as="geometry" />
        </mxCell>
        <mxCell id="8I93Kz_Mq9PfsjWz6-mo-42" style="edgeStyle=orthogonalEdgeStyle;rounded=0;orthogonalLoop=1;jettySize=auto;html=1;entryX=0;entryY=0.5;entryDx=0;entryDy=0;" edge="1" parent="8I93Kz_Mq9PfsjWz6-mo-30" source="8I93Kz_Mq9PfsjWz6-mo-36" target="8I93Kz_Mq9PfsjWz6-mo-37">
          <mxGeometry relative="1" as="geometry" />
        </mxCell>
        <mxCell id="8I93Kz_Mq9PfsjWz6-mo-36" value="" style="ellipse;whiteSpace=wrap;html=1;aspect=fixed;fillColor=#000000;" vertex="1" parent="8I93Kz_Mq9PfsjWz6-mo-30">
          <mxGeometry x="25" y="72.5" width="20" height="20" as="geometry" />
        </mxCell>
        <mxCell id="8I93Kz_Mq9PfsjWz6-mo-43" style="edgeStyle=orthogonalEdgeStyle;rounded=0;orthogonalLoop=1;jettySize=auto;html=1;" edge="1" parent="8I93Kz_Mq9PfsjWz6-mo-30" source="8I93Kz_Mq9PfsjWz6-mo-37" target="8I93Kz_Mq9PfsjWz6-mo-38">
          <mxGeometry relative="1" as="geometry" />
        </mxCell>
        <mxCell id="8I93Kz_Mq9PfsjWz6-mo-37" value="スケージュールを取得" style="rounded=1;whiteSpace=wrap;html=1;" vertex="1" parent="8I93Kz_Mq9PfsjWz6-mo-30">
          <mxGeometry x="125" y="60" width="100" height="45" as="geometry" />
        </mxCell>
        <mxCell id="8I93Kz_Mq9PfsjWz6-mo-44" style="edgeStyle=orthogonalEdgeStyle;rounded=0;orthogonalLoop=1;jettySize=auto;html=1;entryX=0;entryY=0.5;entryDx=0;entryDy=0;" edge="1" parent="8I93Kz_Mq9PfsjWz6-mo-30" source="8I93Kz_Mq9PfsjWz6-mo-38" target="8I93Kz_Mq9PfsjWz6-mo-39">
          <mxGeometry relative="1" as="geometry" />
        </mxCell>
        <mxCell id="8I93Kz_Mq9PfsjWz6-mo-38" value="元ファイル&lt;br&gt;ダウンロード" style="rounded=1;whiteSpace=wrap;html=1;" vertex="1" parent="8I93Kz_Mq9PfsjWz6-mo-30">
          <mxGeometry x="285" y="60" width="100" height="45" as="geometry" />
        </mxCell>
        <mxCell id="8I93Kz_Mq9PfsjWz6-mo-39" value="Mgr_Roboロボット実行" style="rounded=1;whiteSpace=wrap;html=1;" vertex="1" parent="8I93Kz_Mq9PfsjWz6-mo-30">
          <mxGeometry x="445" y="60" width="115" height="45" as="geometry" />
        </mxCell>
        <mxCell id="8I93Kz_Mq9PfsjWz6-mo-40" value="" style="ellipse;whiteSpace=wrap;html=1;aspect=fixed;fillColor=#000000;" vertex="1" parent="8I93Kz_Mq9PfsjWz6-mo-30">
          <mxGeometry x="630" y="72.5" width="20" height="20" as="geometry" />
        </mxCell>
        <mxCell id="8I93Kz_Mq9PfsjWz6-mo-45" style="edgeStyle=orthogonalEdgeStyle;rounded=0;orthogonalLoop=1;jettySize=auto;html=1;" edge="1" parent="1" source="8I93Kz_Mq9PfsjWz6-mo-39">
          <mxGeometry relative="1" as="geometry">
            <mxPoint x="640" y="342.5" as="targetPoint" />
          </mxGeometry>
        </mxCell>
        <mxCell id="8I93Kz_Mq9PfsjWz6-mo-46" value="Mgr_Roboロボット実行" style="swimlane;strokeColor=#82b366;strokeWidth=2;fillColor=#d5e8d4;" vertex="1" parent="1">
          <mxGeometry x="10" y="440" width="990" height="450" as="geometry" />
        </mxCell>
        <mxCell id="8I93Kz_Mq9PfsjWz6-mo-55" style="edgeStyle=orthogonalEdgeStyle;rounded=0;orthogonalLoop=1;jettySize=auto;html=1;" edge="1" parent="8I93Kz_Mq9PfsjWz6-mo-46" source="8I93Kz_Mq9PfsjWz6-mo-47" target="8I93Kz_Mq9PfsjWz6-mo-48">
          <mxGeometry relative="1" as="geometry" />
        </mxCell>
        <mxCell id="8I93Kz_Mq9PfsjWz6-mo-47" value="" style="ellipse;whiteSpace=wrap;html=1;aspect=fixed;fillColor=#000000;" vertex="1" parent="8I93Kz_Mq9PfsjWz6-mo-46">
          <mxGeometry x="25" y="70" width="20" height="20" as="geometry" />
        </mxCell>
        <mxCell id="8I93Kz_Mq9PfsjWz6-mo-56" style="edgeStyle=orthogonalEdgeStyle;rounded=0;orthogonalLoop=1;jettySize=auto;html=1;entryX=0;entryY=0.5;entryDx=0;entryDy=0;" edge="1" parent="8I93Kz_Mq9PfsjWz6-mo-46" source="8I93Kz_Mq9PfsjWz6-mo-48" target="8I93Kz_Mq9PfsjWz6-mo-50">
          <mxGeometry relative="1" as="geometry" />
        </mxCell>
        <mxCell id="8I93Kz_Mq9PfsjWz6-mo-48" value="ロボットIDを確認" style="rounded=1;whiteSpace=wrap;html=1;" vertex="1" parent="8I93Kz_Mq9PfsjWz6-mo-46">
          <mxGeometry x="120" y="57.5" width="100" height="45" as="geometry" />
        </mxCell>
        <mxCell id="8I93Kz_Mq9PfsjWz6-mo-73" style="edgeStyle=orthogonalEdgeStyle;rounded=0;orthogonalLoop=1;jettySize=auto;html=1;entryX=0;entryY=0.5;entryDx=0;entryDy=0;" edge="1" parent="8I93Kz_Mq9PfsjWz6-mo-46" source="8I93Kz_Mq9PfsjWz6-mo-49" target="8I93Kz_Mq9PfsjWz6-mo-72">
          <mxGeometry relative="1" as="geometry" />
        </mxCell>
        <mxCell id="8I93Kz_Mq9PfsjWz6-mo-49" value="Aロボットを実行" style="rounded=1;whiteSpace=wrap;html=1;" vertex="1" parent="8I93Kz_Mq9PfsjWz6-mo-46">
          <mxGeometry x="721" y="272.5" width="100" height="45" as="geometry" />
        </mxCell>
        <mxCell id="8I93Kz_Mq9PfsjWz6-mo-58" style="edgeStyle=orthogonalEdgeStyle;rounded=0;orthogonalLoop=1;jettySize=auto;html=1;" edge="1" parent="8I93Kz_Mq9PfsjWz6-mo-46" source="8I93Kz_Mq9PfsjWz6-mo-50" target="8I93Kz_Mq9PfsjWz6-mo-54">
          <mxGeometry relative="1" as="geometry">
            <Array as="points">
              <mxPoint x="330" y="160" />
            </Array>
          </mxGeometry>
        </mxCell>
        <mxCell id="8I93Kz_Mq9PfsjWz6-mo-50" value="&lt;span&gt;元ファイル確認&lt;/span&gt;" style="rhombus;whiteSpace=wrap;html=1;strokeColor=#000000;strokeWidth=2;fillColor=#FFFFFF;" vertex="1" parent="8I93Kz_Mq9PfsjWz6-mo-46">
          <mxGeometry x="270" y="40" width="120" height="80" as="geometry" />
        </mxCell>
        <mxCell id="8I93Kz_Mq9PfsjWz6-mo-52" value="" style="ellipse;whiteSpace=wrap;html=1;aspect=fixed;fillColor=#000000;" vertex="1" parent="8I93Kz_Mq9PfsjWz6-mo-46">
          <mxGeometry x="480" y="70" width="20" height="20" as="geometry" />
        </mxCell>
        <mxCell id="8I93Kz_Mq9PfsjWz6-mo-68" style="edgeStyle=orthogonalEdgeStyle;rounded=0;orthogonalLoop=1;jettySize=auto;html=1;entryX=0;entryY=0.5;entryDx=0;entryDy=0;" edge="1" parent="8I93Kz_Mq9PfsjWz6-mo-46" source="8I93Kz_Mq9PfsjWz6-mo-51" target="8I93Kz_Mq9PfsjWz6-mo-64">
          <mxGeometry relative="1" as="geometry">
            <Array as="points">
              <mxPoint x="391" y="413" />
              <mxPoint x="391" y="295" />
            </Array>
          </mxGeometry>
        </mxCell>
        <mxCell id="8I93Kz_Mq9PfsjWz6-mo-51" value="10分待つ" style="rounded=1;whiteSpace=wrap;html=1;" vertex="1" parent="8I93Kz_Mq9PfsjWz6-mo-46">
          <mxGeometry x="440" y="390" width="100" height="45" as="geometry" />
        </mxCell>
        <mxCell id="8I93Kz_Mq9PfsjWz6-mo-62" style="edgeStyle=orthogonalEdgeStyle;rounded=0;orthogonalLoop=1;jettySize=auto;html=1;entryX=0;entryY=0.5;entryDx=0;entryDy=0;" edge="1" parent="8I93Kz_Mq9PfsjWz6-mo-46" source="8I93Kz_Mq9PfsjWz6-mo-54" target="8I93Kz_Mq9PfsjWz6-mo-61">
          <mxGeometry relative="1" as="geometry" />
        </mxCell>
        <mxCell id="8I93Kz_Mq9PfsjWz6-mo-65" style="edgeStyle=orthogonalEdgeStyle;rounded=0;orthogonalLoop=1;jettySize=auto;html=1;entryX=0.5;entryY=0;entryDx=0;entryDy=0;" edge="1" parent="8I93Kz_Mq9PfsjWz6-mo-46" source="8I93Kz_Mq9PfsjWz6-mo-54" target="8I93Kz_Mq9PfsjWz6-mo-64">
          <mxGeometry relative="1" as="geometry" />
        </mxCell>
        <mxCell id="8I93Kz_Mq9PfsjWz6-mo-54" value="&lt;span&gt;実行日付をチェック&lt;/span&gt;" style="rhombus;whiteSpace=wrap;html=1;strokeColor=#000000;strokeWidth=2;fillColor=#FFFFFF;" vertex="1" parent="8I93Kz_Mq9PfsjWz6-mo-46">
          <mxGeometry x="420" y="120" width="140" height="80" as="geometry" />
        </mxCell>
        <mxCell id="8I93Kz_Mq9PfsjWz6-mo-57" style="edgeStyle=orthogonalEdgeStyle;rounded=0;orthogonalLoop=1;jettySize=auto;html=1;entryX=0;entryY=0.5;entryDx=0;entryDy=0;" edge="1" parent="8I93Kz_Mq9PfsjWz6-mo-46" source="8I93Kz_Mq9PfsjWz6-mo-50" target="8I93Kz_Mq9PfsjWz6-mo-52">
          <mxGeometry relative="1" as="geometry">
            <mxPoint x="430" y="80" as="targetPoint" />
          </mxGeometry>
        </mxCell>
        <mxCell id="8I93Kz_Mq9PfsjWz6-mo-59" value="無し" style="text;html=1;strokeColor=none;fillColor=none;align=center;verticalAlign=middle;whiteSpace=wrap;rounded=0;" vertex="1" parent="8I93Kz_Mq9PfsjWz6-mo-46">
          <mxGeometry x="404" y="57.5" width="40" height="20" as="geometry" />
        </mxCell>
        <mxCell id="8I93Kz_Mq9PfsjWz6-mo-60" value="有り" style="text;html=1;strokeColor=none;fillColor=none;align=center;verticalAlign=middle;whiteSpace=wrap;rounded=0;" vertex="1" parent="8I93Kz_Mq9PfsjWz6-mo-46">
          <mxGeometry x="330" y="140" width="40" height="20" as="geometry" />
        </mxCell>
        <mxCell id="8I93Kz_Mq9PfsjWz6-mo-61" value="" style="ellipse;whiteSpace=wrap;html=1;aspect=fixed;fillColor=#000000;" vertex="1" parent="8I93Kz_Mq9PfsjWz6-mo-46">
          <mxGeometry x="640" y="150" width="20" height="20" as="geometry" />
        </mxCell>
        <mxCell id="8I93Kz_Mq9PfsjWz6-mo-63" value="当日以外" style="text;html=1;strokeColor=none;fillColor=none;align=center;verticalAlign=middle;whiteSpace=wrap;rounded=0;" vertex="1" parent="8I93Kz_Mq9PfsjWz6-mo-46">
          <mxGeometry x="560" y="140" width="60" height="20" as="geometry" />
        </mxCell>
        <mxCell id="8I93Kz_Mq9PfsjWz6-mo-67" style="edgeStyle=orthogonalEdgeStyle;rounded=0;orthogonalLoop=1;jettySize=auto;html=1;entryX=0.5;entryY=0;entryDx=0;entryDy=0;" edge="1" parent="8I93Kz_Mq9PfsjWz6-mo-46" source="8I93Kz_Mq9PfsjWz6-mo-64" target="8I93Kz_Mq9PfsjWz6-mo-51">
          <mxGeometry relative="1" as="geometry" />
        </mxCell>
        <mxCell id="8I93Kz_Mq9PfsjWz6-mo-70" style="edgeStyle=orthogonalEdgeStyle;rounded=0;orthogonalLoop=1;jettySize=auto;html=1;" edge="1" parent="8I93Kz_Mq9PfsjWz6-mo-46" source="8I93Kz_Mq9PfsjWz6-mo-64" target="8I93Kz_Mq9PfsjWz6-mo-49">
          <mxGeometry relative="1" as="geometry" />
        </mxCell>
        <mxCell id="8I93Kz_Mq9PfsjWz6-mo-64" value="&lt;span&gt;デバイスをチェック&lt;/span&gt;" style="rhombus;whiteSpace=wrap;html=1;strokeColor=#000000;strokeWidth=2;fillColor=#FFFFFF;" vertex="1" parent="8I93Kz_Mq9PfsjWz6-mo-46">
          <mxGeometry x="420" y="255" width="140" height="80" as="geometry" />
        </mxCell>
        <mxCell id="8I93Kz_Mq9PfsjWz6-mo-66" value="当日" style="text;html=1;strokeColor=none;fillColor=none;align=center;verticalAlign=middle;whiteSpace=wrap;rounded=0;" vertex="1" parent="8I93Kz_Mq9PfsjWz6-mo-46">
          <mxGeometry x="490" y="210" width="40" height="20" as="geometry" />
        </mxCell>
        <mxCell id="8I93Kz_Mq9PfsjWz6-mo-69" value="DA使用中" style="text;html=1;strokeColor=none;fillColor=none;align=center;verticalAlign=middle;whiteSpace=wrap;rounded=0;" vertex="1" parent="8I93Kz_Mq9PfsjWz6-mo-46">
          <mxGeometry x="420" y="350" width="60" height="20" as="geometry" />
        </mxCell>
        <mxCell id="8I93Kz_Mq9PfsjWz6-mo-71" value="DS又はDA空いている" style="text;html=1;strokeColor=none;fillColor=none;align=center;verticalAlign=middle;whiteSpace=wrap;rounded=0;" vertex="1" parent="8I93Kz_Mq9PfsjWz6-mo-46">
          <mxGeometry x="570" y="272.5" width="140" height="20" as="geometry" />
        </mxCell>
        <mxCell id="8I93Kz_Mq9PfsjWz6-mo-72" value="" style="ellipse;whiteSpace=wrap;html=1;aspect=fixed;fillColor=#000000;" vertex="1" parent="8I93Kz_Mq9PfsjWz6-mo-46">
          <mxGeometry x="901" y="285" width="20" height="20" as="geometry" />
        </mxCell>
        <mxCell id="8I93Kz_Mq9PfsjWz6-mo-74" style="edgeStyle=orthogonalEdgeStyle;rounded=0;orthogonalLoop=1;jettySize=auto;html=1;" edge="1" parent="1" source="8I93Kz_Mq9PfsjWz6-mo-39" target="8I93Kz_Mq9PfsjWz6-mo-46">
          <mxGeometry relative="1" as="geometry" />
        </mxCell>
      </root>
    </mxGraphModel>
  </diagram>
</mxfile>
